<svg xmlns="http://www.w3.org/2000/svg" viewBox="0 0 320 400" width="320" height="400" ><defs><filter id="k_glow" x="-60%" y="-60%" width="220%" height="220%"><feGaussianBlur stdDeviation="2.4" result="b"/><feMerge><feMergeNode in="b"/><feMergeNode in="b"/><feMergeNode in="SourceGraphic"/></feMerge></filter><filter id="k_soft" x="-60%" y="-60%" width="220%" height="220%"><feGaussianBlur stdDeviation="5"/></filter><pattern id="k_dots" width="5" height="5" patternUnits="userSpaceOnUse"><circle cx="2.5" cy="2.5" r="1" fill="#000" opacity=".22"/></pattern><pattern id="k_dotsL" width="5" height="5" patternUnits="userSpaceOnUse"><circle cx="2.5" cy="2.5" r=".9" fill="#fff" opacity=".10"/></pattern><pattern id="k_check" width="12" height="12" patternUnits="userSpaceOnUse"><rect width="12" height="12" fill="#171B1E"/><rect width="6" height="6" fill="#D8D2C6"/><rect x="6" y="6" width="6" height="6" fill="#D8D2C6"/></pattern><pattern id="k_tiles" width="10" height="10" patternUnits="userSpaceOnUse"><rect width="10" height="10" fill="#EFEBE3"/><path d="M0 0H10M0 0V10" stroke="#000" stroke-opacity=".25" stroke-width="1"/></pattern><pattern id="k_rolpro" width="8" height="8" patternUnits="userSpaceOnUse" patternTransform="rotate(32)"><rect width="8" height="8" fill="#14BFAE"/><rect width="3" height="8" fill="#00000055"/></pattern><pattern id="k_roleco" width="8" height="8" patternUnits="userSpaceOnUse" patternTransform="rotate(32)"><rect width="8" height="8" fill="#9AA3A3"/><rect width="3" height="8" fill="#00000044"/></pattern><pattern id="k_rolprem" width="8" height="8" patternUnits="userSpaceOnUse" patternTransform="rotate(32)"><rect width="8" height="8" fill="#FF2E7A"/><rect width="3" height="8" fill="#00000055"/></pattern></defs><rect width="320" height="400" rx="24" fill="#FFFFFF" stroke="#D8D2C6"/><path d="M0,24 a24,24 0 0 1 24,-24 h272 a24,24 0 0 1 24,24 v86 h-320 z" fill="#EE3B30"/><g transform="translate(20,18)"><svg viewBox="0 0 200 204" width="74" height="75"><circle cx="100" cy="100" r="80" fill="#E4F7F4" stroke="#14BFAE" stroke-width="6"/><path d="M48,82 A56,56 0 0 1 82,46" stroke="#fff" stroke-width="9" stroke-linecap="round" fill="none"/><circle cx="46" cy="102" r="4.5" fill="#fff"/><rect x="50" y="80" width="44" height="26" rx="12" fill="#171B1E"/><rect x="106" y="80" width="44" height="26" rx="12" fill="#171B1E"/><rect x="92" y="86" width="16" height="6" rx="3" fill="#171B1E"/><path d="M60,88 h10 M116,88 h10" stroke="#fff" stroke-width="3.5" stroke-linecap="round" opacity=".8"/><circle cx="100" cy="142" r="9" fill="none" stroke="#171B1E" stroke-width="6"/><path d="M160,40 Q170,56 160,62 Q150,56 160,40 Z" fill="#1E97E0"/></svg></g><circle cx="276" cy="48" r="24" fill="#fff"/><path d="M276,35 L291.75,62.0 L260.25,62.0 Z" fill="#EE3B30" stroke="#D8D2C6" stroke-width="1.4" stroke-linejoin="round"/><rect x="274.35" y="43.7" width="3.3" height="9.3" rx="1.5" fill="#101010"/><circle cx="276" cy="57.2" r="1.9500000000000002" fill="#101010"/><text x="108" y="50" text-anchor="start" font-family="Barlow Condensed" font-weight="700" font-size="13" letter-spacing="2" fill="#fff" opacity="1">PANNE</text><text x="108" y="78" text-anchor="start" font-family="Righteous" font-weight="400" font-size="22" letter-spacing="0" fill="#fff" opacity="1">Piste HP n°3</text><text x="20" y="146" text-anchor="start" font-family="Barlow Condensed" font-weight="600" font-size="14" letter-spacing="0" fill="#6A7276" opacity="1">Station</text><text x="300" y="146" text-anchor="end" font-family="Barlow Condensed" font-weight="700" font-size="15" letter-spacing="0" fill="#171B1E" opacity="1">Les Bruyères</text><text x="20" y="176" text-anchor="start" font-family="Barlow Condensed" font-weight="600" font-size="14" letter-spacing="0" fill="#6A7276" opacity="1">Intervention</text><text x="300" y="176" text-anchor="end" font-family="Barlow Condensed" font-weight="700" font-size="15" letter-spacing="0" fill="#171B1E" opacity="1">dans 2 jours</text><text x="20" y="206" text-anchor="start" font-family="Barlow Condensed" font-weight="600" font-size="14" letter-spacing="0" fill="#6A7276" opacity="1">Coût</text><text x="300" y="206" text-anchor="end" font-family="Barlow Condensed" font-weight="700" font-size="15" letter-spacing="0" fill="#171B1E" opacity="1">380 €</text><text x="20" y="236" text-anchor="start" font-family="Barlow Condensed" font-weight="600" font-size="14" letter-spacing="0" fill="#6A7276" opacity="1">Contrat</text><text x="300" y="236" text-anchor="end" font-family="Barlow Condensed" font-weight="700" font-size="15" letter-spacing="0" fill="#171B1E" opacity="1">Essentiel</text><text x="20" y="268" text-anchor="start" font-family="Inter" font-weight="500" font-size="11.5" letter-spacing="0" fill="#6A7276" opacity="1">Avec le contrat Confort : intervention en 24 h.</text><rect x="20" y="290" width="280" height="48" rx="24.0" fill="#1B2024" stroke="#14BFAE" stroke-width="2.2" filter="url(#k_glow)"/><g transform="translate(38,304.0) scale(0.8333333333333334)" fill="none" stroke="#14BFAE" stroke-width="2.64" stroke-linecap="round" stroke-linejoin="round"><path d="M3 20.5V10l9-6 9 6v10.5"/><path d="M8 20.5V14h8v6.5"/><path d="M2 20.5h20"/></g><text x="66" y="320.0" text-anchor="start" font-family="Barlow Condensed" font-weight="700" font-size="17" letter-spacing="0" fill="#14BFAE" opacity="1">Voir la station</text><rect x="20" y="346" width="280" height="44" rx="22.0" fill="#1B2024" stroke="none" stroke-width="0" /><text x="160.0" y="374.0" text-anchor="middle" font-family="Barlow Condensed" font-weight="700" font-size="17" letter-spacing="0" fill="#F4F0E6" opacity="1">Plus tard</text></svg>