<svg xmlns="http://www.w3.org/2000/svg" viewBox="0 0 150 156" width="150" height="156" ><defs><filter id="k_glow" x="-60%" y="-60%" width="220%" height="220%"><feGaussianBlur stdDeviation="2.4" result="b"/><feMerge><feMergeNode in="b"/><feMergeNode in="b"/><feMergeNode in="SourceGraphic"/></feMerge></filter><filter id="k_soft" x="-60%" y="-60%" width="220%" height="220%"><feGaussianBlur stdDeviation="5"/></filter><pattern id="k_dots" width="5" height="5" patternUnits="userSpaceOnUse"><circle cx="2.5" cy="2.5" r="1" fill="#000" opacity=".22"/></pattern><pattern id="k_dotsL" width="5" height="5" patternUnits="userSpaceOnUse"><circle cx="2.5" cy="2.5" r=".9" fill="#fff" opacity=".10"/></pattern><pattern id="k_check" width="12" height="12" patternUnits="userSpaceOnUse"><rect width="12" height="12" fill="#171B1E"/><rect width="6" height="6" fill="#D8D2C6"/><rect x="6" y="6" width="6" height="6" fill="#D8D2C6"/></pattern><pattern id="k_tiles" width="10" height="10" patternUnits="userSpaceOnUse"><rect width="10" height="10" fill="#EFEBE3"/><path d="M0 0H10M0 0V10" stroke="#000" stroke-opacity=".25" stroke-width="1"/></pattern><pattern id="k_rolpro" width="8" height="8" patternUnits="userSpaceOnUse" patternTransform="rotate(32)"><rect width="8" height="8" fill="#14BFAE"/><rect width="3" height="8" fill="#00000055"/></pattern><pattern id="k_roleco" width="8" height="8" patternUnits="userSpaceOnUse" patternTransform="rotate(32)"><rect width="8" height="8" fill="#9AA3A3"/><rect width="3" height="8" fill="#00000044"/></pattern><pattern id="k_rolprem" width="8" height="8" patternUnits="userSpaceOnUse" patternTransform="rotate(32)"><rect width="8" height="8" fill="#FF2E7A"/><rect width="3" height="8" fill="#00000055"/></pattern></defs><rect width="150" height="118" fill="#EEE8DA"/><path d="M0,96 H150" stroke="#D3CCBD" stroke-width="10"/><path d="M10,84 L30,30" stroke="#B9C98E" stroke-width="7" stroke-linecap="round"/><path d="M32,84 L52,30" stroke="#B9C98E" stroke-width="7" stroke-linecap="round"/><path d="M54,84 L74,30" stroke="#B9C98E" stroke-width="7" stroke-linecap="round"/><path d="M76,84 L96,30" stroke="#B9C98E" stroke-width="7" stroke-linecap="round"/><path d="M98,84 L118,30" stroke="#B9C98E" stroke-width="7" stroke-linecap="round"/><path d="M120,84 L140,30" stroke="#B9C98E" stroke-width="7" stroke-linecap="round"/><circle cx="122" cy="40" r="14" fill="#8DB36A"/><rect x="120" y="50" width="4" height="16" fill="#7A6A55"/><text x="75.0" y="136" text-anchor="middle" font-family="Barlow Condensed" font-weight="700" font-size="13" letter-spacing="0" fill="#171B1E" opacity="1">1 · Champ</text><text x="75.0" y="151" text-anchor="middle" font-family="Inter" font-weight="500" font-size="10.5" letter-spacing="0" fill="#6A7276" opacity="1">flux faible</text></svg>