<svg xmlns="http://www.w3.org/2000/svg" viewBox="0 0 150 156" width="150" height="156" ><defs><filter id="k_glow" x="-60%" y="-60%" width="220%" height="220%"><feGaussianBlur stdDeviation="2.4" result="b"/><feMerge><feMergeNode in="b"/><feMergeNode in="b"/><feMergeNode in="SourceGraphic"/></feMerge></filter><filter id="k_soft" x="-60%" y="-60%" width="220%" height="220%"><feGaussianBlur stdDeviation="5"/></filter><pattern id="k_dots" width="5" height="5" patternUnits="userSpaceOnUse"><circle cx="2.5" cy="2.5" r="1" fill="#000" opacity=".22"/></pattern><pattern id="k_dotsL" width="5" height="5" patternUnits="userSpaceOnUse"><circle cx="2.5" cy="2.5" r=".9" fill="#fff" opacity=".10"/></pattern><pattern id="k_check" width="12" height="12" patternUnits="userSpaceOnUse"><rect width="12" height="12" fill="#171B1E"/><rect width="6" height="6" fill="#D8D2C6"/><rect x="6" y="6" width="6" height="6" fill="#D8D2C6"/></pattern><pattern id="k_tiles" width="10" height="10" patternUnits="userSpaceOnUse"><rect width="10" height="10" fill="#EFEBE3"/><path d="M0 0H10M0 0V10" stroke="#000" stroke-opacity=".25" stroke-width="1"/></pattern><pattern id="k_rolpro" width="8" height="8" patternUnits="userSpaceOnUse" patternTransform="rotate(32)"><rect width="8" height="8" fill="#14BFAE"/><rect width="3" height="8" fill="#00000055"/></pattern><pattern id="k_roleco" width="8" height="8" patternUnits="userSpaceOnUse" patternTransform="rotate(32)"><rect width="8" height="8" fill="#9AA3A3"/><rect width="3" height="8" fill="#00000044"/></pattern><pattern id="k_rolprem" width="8" height="8" patternUnits="userSpaceOnUse" patternTransform="rotate(32)"><rect width="8" height="8" fill="#FF2E7A"/><rect width="3" height="8" fill="#00000055"/></pattern></defs><rect width="150" height="118" fill="#EEE8DA"/><path d="M0,96 H150" stroke="#D3CCBD" stroke-width="10"/><path d="M14,40 h110 l14,-8.4 h-110 z" fill="#F2EFE8" stroke="#9A9486" stroke-width=".8"/><path d="M124,40 l14,-8.4 v38 l-14,8.4 z" fill="#DDD8CC" stroke="#9A9486" stroke-width=".8"/><rect x="14" y="40" width="110" height="38" fill="#FFFFFF" stroke="#9A9486" stroke-width=".8"/><path d="M14,40 Q44,22 70,36 Q96,48 124,30" fill="none" stroke="#FF2E7A" stroke-width="2.4" filter="url(#k_glow)"/><rect x="56" y="12" width="6" height="30" fill="#8E999C"/><rect x="44" y="6" width="30" height="12" rx="6" fill="#1B2024"/><path d="M18,84 v8" stroke="#fff" stroke-width="2"/><path d="M35,84 v8" stroke="#fff" stroke-width="2"/><path d="M52,84 v8" stroke="#fff" stroke-width="2"/><path d="M69,84 v8" stroke="#fff" stroke-width="2"/><path d="M86,84 v8" stroke="#fff" stroke-width="2"/><path d="M103,84 v8" stroke="#fff" stroke-width="2"/><path d="M120,84 v8" stroke="#fff" stroke-width="2"/><text x="75.0" y="136" text-anchor="middle" font-family="Barlow Condensed" font-weight="700" font-size="13" letter-spacing="0" fill="#171B1E" opacity="1">4 · Centre commercial</text><text x="75.0" y="151" text-anchor="middle" font-family="Inter" font-weight="500" font-size="10.5" letter-spacing="0" fill="#6A7276" opacity="1">gros flux, terrain cher</text></svg>