<svg xmlns="http://www.w3.org/2000/svg" viewBox="0 0 150 156" width="150" height="156" ><defs><filter id="k_glow" x="-60%" y="-60%" width="220%" height="220%"><feGaussianBlur stdDeviation="2.4" result="b"/><feMerge><feMergeNode in="b"/><feMergeNode in="b"/><feMergeNode in="SourceGraphic"/></feMerge></filter><filter id="k_soft" x="-60%" y="-60%" width="220%" height="220%"><feGaussianBlur stdDeviation="5"/></filter><pattern id="k_dots" width="5" height="5" patternUnits="userSpaceOnUse"><circle cx="2.5" cy="2.5" r="1" fill="#000" opacity=".22"/></pattern><pattern id="k_dotsL" width="5" height="5" patternUnits="userSpaceOnUse"><circle cx="2.5" cy="2.5" r=".9" fill="#fff" opacity=".10"/></pattern><pattern id="k_check" width="12" height="12" patternUnits="userSpaceOnUse"><rect width="12" height="12" fill="#171B1E"/><rect width="6" height="6" fill="#D8D2C6"/><rect x="6" y="6" width="6" height="6" fill="#D8D2C6"/></pattern><pattern id="k_tiles" width="10" height="10" patternUnits="userSpaceOnUse"><rect width="10" height="10" fill="#EFEBE3"/><path d="M0 0H10M0 0V10" stroke="#000" stroke-opacity=".25" stroke-width="1"/></pattern><pattern id="k_rolpro" width="8" height="8" patternUnits="userSpaceOnUse" patternTransform="rotate(32)"><rect width="8" height="8" fill="#14BFAE"/><rect width="3" height="8" fill="#00000055"/></pattern><pattern id="k_roleco" width="8" height="8" patternUnits="userSpaceOnUse" patternTransform="rotate(32)"><rect width="8" height="8" fill="#9AA3A3"/><rect width="3" height="8" fill="#00000044"/></pattern><pattern id="k_rolprem" width="8" height="8" patternUnits="userSpaceOnUse" patternTransform="rotate(32)"><rect width="8" height="8" fill="#FF2E7A"/><rect width="3" height="8" fill="#00000055"/></pattern></defs><rect width="150" height="118" fill="#EEE8DA"/><path d="M0,96 H150" stroke="#D3CCBD" stroke-width="10"/><path d="M10,50 h70 l10,-6.0 h-70 z" fill="#F2EFE8" stroke="#9A9486" stroke-width=".8"/><path d="M80,50 l10,-6.0 v28 l-10,6.0 z" fill="#DDD8CC" stroke="#9A9486" stroke-width=".8"/><rect x="10" y="50" width="70" height="28" fill="#FFFFFF" stroke="#9A9486" stroke-width=".8"/><path d="M90,22 h22 l8,-4.8 h-22 z" fill="#E2DDD2" stroke="#9A9486" stroke-width=".8"/><path d="M112,22 l8,-4.8 v56 l-8,4.8 z" fill="#CFC9BC" stroke="#9A9486" stroke-width=".8"/><rect x="90" y="22" width="22" height="56" fill="#F4F1EA" stroke="#9A9486" stroke-width=".8"/><path d="M118,34 h18 l6,-3.5999999999999996 h-18 z" fill="#E2DDD2" stroke="#9A9486" stroke-width=".8"/><path d="M136,34 l6,-3.5999999999999996 v44 l-6,3.5999999999999996 z" fill="#CFC9BC" stroke="#9A9486" stroke-width=".8"/><rect x="118" y="34" width="18" height="44" fill="#F4F1EA" stroke="#9A9486" stroke-width=".8"/><path d="M94,30 h14" stroke="#1E97E0" stroke-width="2" opacity=".5"/><path d="M94,42 h14" stroke="#1E97E0" stroke-width="2" opacity=".5"/><path d="M94,54 h14" stroke="#1E97E0" stroke-width="2" opacity=".5"/><path d="M94,66 h14" stroke="#1E97E0" stroke-width="2" opacity=".5"/><path d="M10,50 Q40,36 80,50" fill="none" stroke="#14BFAE" stroke-width="2.2" filter="url(#k_glow)"/><circle cx="40" cy="96" r="9" fill="none" stroke="#fff" stroke-width="3"/><text x="75.0" y="136" text-anchor="middle" font-family="Barlow Condensed" font-weight="700" font-size="13" letter-spacing="0" fill="#171B1E" opacity="1">5 · Pôle péri-urbain</text><text x="75.0" y="151" text-anchor="middle" font-family="Inter" font-weight="500" font-size="10.5" letter-spacing="0" fill="#6A7276" opacity="1">le jackpot</text></svg>