<svg xmlns="http://www.w3.org/2000/svg" viewBox="0 0 390 844" width="390" height="844"><defs><filter id="k_glow" x="-60%" y="-60%" width="220%" height="220%"><feGaussianBlur stdDeviation="2.4" result="b"/><feMerge><feMergeNode in="b"/><feMergeNode in="b"/><feMergeNode in="SourceGraphic"/></feMerge></filter><filter id="k_soft" x="-60%" y="-60%" width="220%" height="220%"><feGaussianBlur stdDeviation="5"/></filter><pattern id="k_dots" width="5" height="5" patternUnits="userSpaceOnUse"><circle cx="2.5" cy="2.5" r="1" fill="#000" opacity=".22"/></pattern><pattern id="k_dotsL" width="5" height="5" patternUnits="userSpaceOnUse"><circle cx="2.5" cy="2.5" r=".9" fill="#fff" opacity=".10"/></pattern><pattern id="k_check" width="12" height="12" patternUnits="userSpaceOnUse"><rect width="12" height="12" fill="#171B1E"/><rect width="6" height="6" fill="#D8D2C6"/><rect x="6" y="6" width="6" height="6" fill="#D8D2C6"/></pattern><pattern id="k_tiles" width="10" height="10" patternUnits="userSpaceOnUse"><rect width="10" height="10" fill="#EFEBE3"/><path d="M0 0H10M0 0V10" stroke="#000" stroke-opacity=".25" stroke-width="1"/></pattern><pattern id="k_rolpro" width="8" height="8" patternUnits="userSpaceOnUse" patternTransform="rotate(32)"><rect width="8" height="8" fill="#14BFAE"/><rect width="3" height="8" fill="#00000055"/></pattern><pattern id="k_roleco" width="8" height="8" patternUnits="userSpaceOnUse" patternTransform="rotate(32)"><rect width="8" height="8" fill="#9AA3A3"/><rect width="3" height="8" fill="#00000044"/></pattern><pattern id="k_rolprem" width="8" height="8" patternUnits="userSpaceOnUse" patternTransform="rotate(32)"><rect width="8" height="8" fill="#FF2E7A"/><rect width="3" height="8" fill="#00000055"/></pattern></defs><rect width="390" height="844" fill="#F7F4EE"/><g transform="translate(0,101)"><clipPath id="mclip"><rect width="390" height="596"/></clipPath><g clip-path="url(#mclip)"><rect width="390" height="596" fill="#EEE8DA"/><path d="M0,0 L130,0 Q110,30 80,48 Q40,70 0,100 Z" fill="#CFE6EA"/><path d="M12,30 q6,-4 12,0" stroke="#fff" stroke-width="1.6" fill="none" opacity=".8"/><path d="M34,26 q6,-4 12,0" stroke="#fff" stroke-width="1.6" fill="none" opacity=".8"/><path d="M56,22 q6,-4 12,0" stroke="#fff" stroke-width="1.6" fill="none" opacity=".8"/><path d="M78,18 q6,-4 12,0" stroke="#fff" stroke-width="1.6" fill="none" opacity=".8"/><path d="M390,236 C320,250 260,290 220,330 C170,380 120,430 90,500 C80,540 60,570 52,596" stroke="#BFDDE6" stroke-width="9" fill="none" stroke-linecap="round"/><path d="M0,468 C120,450 260,430 390,410" stroke="#D3CCBD" stroke-width="9" fill="none"/><path d="M232,596 C238,450 250,300 262,160 C268,90 270,40 272,0" stroke="#D3CCBD" stroke-width="8" fill="none"/><path d="M0,300 C80,290 160,280 250,262" stroke="#D3CCBD" stroke-width="5" fill="none"/><path d="M262,170 C300,160 350,150 390,140" stroke="#D3CCBD" stroke-width="5" fill="none"/><path d="M120,90 C150,120 200,140 262,150" stroke="#D3CCBD" stroke-width="4" fill="none"/><path d="M0,380 L170,350 L205,470 L180,596 L0,596 Z" fill="none" stroke="#6A7276" stroke-opacity=".35" stroke-width="1.2" stroke-dasharray="5 4"/><path d="M170,350 L390,330 L390,596 L180,596 L205,470 Z" fill="none" stroke="#6A7276" stroke-opacity=".35" stroke-width="1.2" stroke-dasharray="5 4"/><path d="M0,190 L150,170 L200,260 L170,350 L0,380 Z" fill="none" stroke="#6A7276" stroke-opacity=".35" stroke-width="1.2" stroke-dasharray="5 4"/><path d="M150,170 L390,150 L390,330 L170,350 L200,260 Z" fill="none" stroke="#6A7276" stroke-opacity=".35" stroke-width="1.2" stroke-dasharray="5 4"/><path d="M0,0 L210,0 L180,90 L150,170 L0,190 Z" fill="none" stroke="#6A7276" stroke-opacity=".35" stroke-width="1.2" stroke-dasharray="5 4"/><path d="M210,0 L390,0 L390,150 L150,170 L180,90 Z" fill="none" stroke="#6A7276" stroke-opacity=".35" stroke-width="1.2" stroke-dasharray="5 4"/><text x="12" y="400" text-anchor="start" font-family="Barlow Condensed" font-weight="700" font-size="9.5" letter-spacing="1.4" fill="#6A7276" opacity="1">LES BRUYÈRES</text><text x="296" y="356" text-anchor="start" font-family="Barlow Condensed" font-weight="700" font-size="9.5" letter-spacing="1.4" fill="#6A7276" opacity="1">LA GARENNE</text><text x="14" y="206" text-anchor="start" font-family="Barlow Condensed" font-weight="700" font-size="9.5" letter-spacing="1.4" fill="#6A7276" opacity="1">LES GENÊTS</text><text x="300" y="168" text-anchor="start" font-family="Barlow Condensed" font-weight="700" font-size="9.5" letter-spacing="1.4" fill="#6A7276" opacity="1">VAL-OMBRÉ</text><clipPath id="clip_port"><path d="M0,0 L210,0 L180,90 L150,170 L0,190 Z"/></clipPath><g clip-path="url(#clip_port)"><path d="M0,0 L210,0 L180,90 L150,170 L0,190 Z" fill="#E8DFC6"/><circle cx="50" cy="50" r="26" fill="#FFFFFF" opacity=".72"/><circle cx="67" cy="97" r="33" fill="#FFFFFF" opacity=".72"/><circle cx="109" cy="120" r="40" fill="#FFFFFF" opacity=".72"/><circle cx="148" cy="58" r="29" fill="#FFFFFF" opacity=".72"/><circle cx="166" cy="88" r="36" fill="#FFFFFF" opacity=".72"/><circle cx="48" cy="125" r="43" fill="#FFFFFF" opacity=".72"/><circle cx="71" cy="60" r="32" fill="#FFFFFF" opacity=".72"/><circle cx="103" cy="81" r="39" fill="#FFFFFF" opacity=".72"/><circle cx="151" cy="133" r="28" fill="#FFFFFF" opacity=".72"/><circle cx="167" cy="54" r="35" fill="#FFFFFF" opacity=".72"/></g><path d="M0,0 L210,0 L180,90 L150,170 L0,190 Z" fill="none" stroke="#C9BE9F" stroke-width="1.5"/><circle cx="108.0" cy="90.0" r="20" fill="#1B2024"/><g transform="translate(98.0,79.0) scale(0.8333333333333334)" fill="none" stroke="#F4F0E6" stroke-width="2.64" stroke-linecap="round" stroke-linejoin="round"><rect x="5" y="10.5" width="14" height="10" rx="2.5"/><path d="M8 10.5V8a4 4 0 0 1 8 0v2.5"/></g><text x="108.0" y="128.0" text-anchor="middle" font-family="Barlow Condensed" font-weight="700" font-size="13" fill="#171B1E" stroke="#fff" stroke-width="3" paint-order="stroke">2 000 €</text><clipPath id="clip_fleury"><path d="M210,0 L390,0 L390,150 L150,170 L180,90 Z"/></clipPath><g clip-path="url(#clip_fleury)"><path d="M210,0 L390,0 L390,150 L150,170 L180,90 Z" fill="#E8DFC6"/><circle cx="206" cy="42" r="26" fill="#FFFFFF" opacity=".72"/><circle cx="223" cy="89" r="33" fill="#FFFFFF" opacity=".72"/><circle cx="265" cy="112" r="40" fill="#FFFFFF" opacity=".72"/><circle cx="304" cy="50" r="29" fill="#FFFFFF" opacity=".72"/><circle cx="322" cy="80" r="36" fill="#FFFFFF" opacity=".72"/><circle cx="204" cy="117" r="43" fill="#FFFFFF" opacity=".72"/><circle cx="227" cy="52" r="32" fill="#FFFFFF" opacity=".72"/><circle cx="259" cy="73" r="39" fill="#FFFFFF" opacity=".72"/><circle cx="307" cy="125" r="28" fill="#FFFFFF" opacity=".72"/><circle cx="323" cy="46" r="35" fill="#FFFFFF" opacity=".72"/></g><path d="M210,0 L390,0 L390,150 L150,170 L180,90 Z" fill="none" stroke="#C9BE9F" stroke-width="1.5"/><circle cx="264.0" cy="82.0" r="20" fill="#1B2024"/><g transform="translate(254.0,71.0) scale(0.8333333333333334)" fill="none" stroke="#F4F0E6" stroke-width="2.64" stroke-linecap="round" stroke-linejoin="round"><rect x="5" y="10.5" width="14" height="10" rx="2.5"/><path d="M8 10.5V8a4 4 0 0 1 8 0v2.5"/></g><text x="264.0" y="120.0" text-anchor="middle" font-family="Barlow Condensed" font-weight="700" font-size="13" fill="#171B1E" stroke="#fff" stroke-width="3" paint-order="stroke">2 000 €</text><path d="M40,491 h40 l6,-3.5999999999999996 h-40 z" fill="#F2EFE8" stroke="#A39D90" stroke-width=".8"/><path d="M80,491 l6,-3.5999999999999996 v16 l-6,3.5999999999999996 z" fill="#DDD8CC" stroke="#A39D90" stroke-width=".8"/><rect x="40" y="491" width="40" height="16" fill="#FFFFFF" stroke="#A39D90" stroke-width=".8"/><rect x="48" y="494" width="24" height="6" rx="3" fill="#1B2024"/><text x="40" y="519" font-family="Barlow Condensed" font-weight="700" font-size="9" fill="#6A7276" stroke="#EEE8DA" stroke-width="3" paint-order="stroke">MAGASIN</text><path d="M318,510 h16 l4,-2.4 h-16 z" fill="#E2DDD2" stroke="#A39D90" stroke-width=".8"/><path d="M334,510 l4,-2.4 v13 l-4,2.4 z" fill="#CFC9BC" stroke="#A39D90" stroke-width=".8"/><rect x="318" y="510" width="16" height="13" fill="#F4F1EA" stroke="#A39D90" stroke-width=".8"/><path d="M337,510 h16 l4,-2.4 h-16 z" fill="#E2DDD2" stroke="#A39D90" stroke-width=".8"/><path d="M353,510 l4,-2.4 v13 l-4,2.4 z" fill="#CFC9BC" stroke="#A39D90" stroke-width=".8"/><rect x="337" y="510" width="16" height="13" fill="#F4F1EA" stroke="#A39D90" stroke-width=".8"/><path d="M356,510 h16 l4,-2.4 h-16 z" fill="#E2DDD2" stroke="#A39D90" stroke-width=".8"/><path d="M372,510 l4,-2.4 v13 l-4,2.4 z" fill="#CFC9BC" stroke="#A39D90" stroke-width=".8"/><rect x="356" y="510" width="16" height="13" fill="#F4F1EA" stroke="#A39D90" stroke-width=".8"/><text x="318" y="536" font-family="Barlow Condensed" font-weight="700" font-size="9" fill="#6A7276" stroke="#EEE8DA" stroke-width="3" paint-order="stroke">ZA DES PRÉS</text><path d="M300,228 h60 l8,-4.8 h-60 z" fill="#F2EFE8" stroke="#A39D90" stroke-width=".8"/><path d="M360,228 l8,-4.8 v20 l-8,4.8 z" fill="#DDD8CC" stroke="#A39D90" stroke-width=".8"/><rect x="300" y="228" width="60" height="20" fill="#FFFFFF" stroke="#A39D90" stroke-width=".8"/><path d="M300,228 Q316,218 330,226 Q344,234 360,222" fill="none" stroke="#FF2E7A" stroke-width="1.8" filter="url(#k_glow)"/><text x="300" y="260" font-family="Barlow Condensed" font-weight="700" font-size="9" fill="#6A7276" stroke="#EEE8DA" stroke-width="3" paint-order="stroke">CENTRE OUEST</text><path d="M30,266 L38,244" stroke="#B9C98E" stroke-width="4" stroke-linecap="round"/><path d="M39,266 L47,244" stroke="#B9C98E" stroke-width="4" stroke-linecap="round"/><path d="M48,266 L56,244" stroke="#B9C98E" stroke-width="4" stroke-linecap="round"/><path d="M57,266 L65,244" stroke="#B9C98E" stroke-width="4" stroke-linecap="round"/><circle cx="74" cy="248" r="7" fill="#8DB36A"/><text x="30" y="264" font-family="Barlow Condensed" font-weight="700" font-size="9" fill="#6A7276" stroke="#EEE8DA" stroke-width="3" paint-order="stroke">CHAMP</text><path d="M96,262 V228 M96,230 H122 M96,230 L86,236 M116,230 V242" stroke="#F5A300" stroke-width="2.4" fill="none" stroke-linecap="round"/><rect x="112" y="242" width="8" height="6" fill="#1B2024"/><path d="M84,210 L94,220 L84,230 L74,220 Z" fill="#F5A300" stroke="#D8D2C6" stroke-width="1.4" stroke-linejoin="round"/><path d="M84,215.0 L87.8,219.5 M84,215.0 L80.2,219.5 M84,215.0 L84,225.0" stroke="#101010" stroke-width="1.7999999999999998" stroke-linecap="round" fill="none"/><path d="M110,420 h34 l5,-3.0 h-34 z" fill="#F2EFE8" stroke="#A39D90" stroke-width=".8"/><path d="M144,420 l5,-3.0 v13 l-5,3.0 z" fill="#DDD8CC" stroke="#A39D90" stroke-width=".8"/><rect x="110" y="420" width="34" height="13" fill="#FFFFFF" stroke="#A39D90" stroke-width=".8"/><rect x="113.0" y="423" width="8" height="10" fill="#E7E3DB"/><rect x="123.5" y="423" width="8" height="10" fill="#E7E3DB"/><rect x="134.0" y="423" width="8" height="10" fill="#E7E3DB"/><rect x="106" y="402" width="2.5" height="20" fill="#8E999C"/><path d="M96,398 L157.6,392 L159.6,406 L98,412 Z" fill="#1B2024" stroke="#FF2E7A" stroke-width="1.6" filter="url(#k_glow)"/><text x="127.8" y="406" text-anchor="middle" font-family="Barlow Condensed" font-weight="700" font-size="9.5" fill="#FF2E7A" transform="rotate(-6 127.8 404)">BRUYÈRES</text><rect x="162.79999999999998" y="390.2" width="13.6" height="13.6" rx="3.6" fill="#22A447" stroke="#D8D2C6" stroke-width="1.4"/><path d="M166.23999999999998,397 L168.79999999999998,399.56 L173.2,394.6" stroke="#101010" stroke-width="1.6" fill="none" stroke-linecap="round" stroke-linejoin="round"/><rect x="148" y="429" width="9" height="4.5" rx="2.2" fill="#3E8E8A"/><rect x="160" y="429" width="9" height="4.5" rx="2.2" fill="#D8A247"/><path d="M214,288 h34 l5,-3.0 h-34 z" fill="#F2EFE8" stroke="#A39D90" stroke-width=".8"/><path d="M248,288 l5,-3.0 v13 l-5,3.0 z" fill="#DDD8CC" stroke="#A39D90" stroke-width=".8"/><rect x="214" y="288" width="34" height="13" fill="#FFFFFF" stroke="#A39D90" stroke-width=".8"/><rect x="217.0" y="291" width="8" height="10" fill="#E7E3DB"/><rect x="227.5" y="291" width="8" height="10" fill="#E7E3DB"/><rect x="238.0" y="291" width="8" height="10" fill="#E7E3DB"/><rect x="210" y="270" width="2.5" height="20" fill="#8E999C"/><path d="M200,266 L267.8,260 L269.8,274 L202,280 Z" fill="#1B2024" stroke="#FF2E7A" stroke-width="1.6" filter="url(#k_glow)"/><text x="234.9" y="274" text-anchor="middle" font-family="Barlow Condensed" font-weight="700" font-size="9.5" fill="#FF2E7A" transform="rotate(-6 234.9 272)">VAL-OMBRÉ</text><rect x="273.0" y="258.2" width="13.6" height="13.6" rx="3.6" fill="#22A447" stroke="#D8D2C6" stroke-width="1.4"/><path d="M276.44,265 L279.0,267.56 L283.40000000000003,262.6" stroke="#101010" stroke-width="1.6" fill="none" stroke-linecap="round" stroke-linejoin="round"/><rect x="252" y="297" width="9" height="4.5" rx="2.2" fill="#3E8E8A"/><rect x="264" y="297" width="9" height="4.5" rx="2.2" fill="#D8A247"/><path d="M306,388 h34 l5,-3.0 h-34 z" fill="#F2EFE8" stroke="#A39D90" stroke-width=".8"/><path d="M340,388 l5,-3.0 v13 l-5,3.0 z" fill="#DDD8CC" stroke="#A39D90" stroke-width=".8"/><rect x="306" y="388" width="34" height="13" fill="#FFFFFF" stroke="#A39D90" stroke-width=".8"/><rect x="309.0" y="391" width="8" height="10" fill="#E7E3DB"/><rect x="319.5" y="391" width="8" height="10" fill="#E7E3DB"/><rect x="330.0" y="391" width="8" height="10" fill="#E7E3DB"/><rect x="302" y="370" width="2.5" height="20" fill="#8E999C"/><path d="M292,366 L353.6,360 L355.6,374 L294,380 Z" fill="#1B2024" stroke="#FF7A1A" stroke-width="1.6" /><text x="323.8" y="374" text-anchor="middle" font-family="Barlow Condensed" font-weight="700" font-size="9.5" fill="#FF7A1A" transform="rotate(-6 323.8 372)">DISCOUNT</text><circle cx="365.6" cy="365" r="7.2" fill="#1E97E0" stroke="#D8D2C6" stroke-width="1.4"/><rect x="364.8" y="364.04" width="1.6" height="4.4" rx="0.64" fill="#101010"/><circle cx="365.6" cy="361.96" r="0.96" fill="#101010"/><rect x="60" y="296" width="64" height="30" fill="#F7F2E6" fill-opacity=".7" stroke="#14BFAE" stroke-width="1.5" stroke-dasharray="5 3"/><rect x="64.0" y="300" width="11.0" height="22" fill="none" stroke="#14BFAE" stroke-opacity=".45" stroke-width=".8"/><rect x="78.0" y="300" width="11.0" height="22" fill="none" stroke="#14BFAE" stroke-opacity=".45" stroke-width=".8"/><rect x="92.0" y="300" width="11.0" height="22" fill="none" stroke="#14BFAE" stroke-opacity=".45" stroke-width=".8"/><rect x="106.0" y="300" width="11.0" height="22" fill="none" stroke="#14BFAE" stroke-opacity=".45" stroke-width=".8"/><rect x="90.8" y="284" width="2.4" height="12" fill="#8E999C"/><rect x="66.0" y="268" width="52" height="17" rx="8.5" fill="#1B2024"/><g transform="translate(70.0,271) scale(.42)"><path d="M12 2.5l2.9 6 6.6.8-4.9 4.5 1.3 6.5L12 17.1l-5.9 3.2 1.3-6.5L2.5 9.3l6.6-.8z" fill="#F5A300"/></g><g transform="translate(79.0,271) scale(.42)"><path d="M12 2.5l2.9 6 6.6.8-4.9 4.5 1.3 6.5L12 17.1l-5.9 3.2 1.3-6.5L2.5 9.3l6.6-.8z" fill="#F5A300"/></g><g transform="translate(88.0,271) scale(.42)"><path d="M12 2.5l2.9 6 6.6.8-4.9 4.5 1.3 6.5L12 17.1l-5.9 3.2 1.3-6.5L2.5 9.3l6.6-.8z" fill="#F5A300"/></g><g transform="translate(97.0,271) scale(.42)"><path d="M12 2.5l2.9 6 6.6.8-4.9 4.5 1.3 6.5L12 17.1l-5.9 3.2 1.3-6.5L2.5 9.3l6.6-.8z" fill="#ffffff33"/></g><g transform="translate(106.0,271) scale(.42)"><path d="M12 2.5l2.9 6 6.6.8-4.9 4.5 1.3 6.5L12 17.1l-5.9 3.2 1.3-6.5L2.5 9.3l6.6-.8z" fill="#ffffff33"/></g><rect x="54" y="290" width="76" height="42" fill="none" stroke="#14BFAE" stroke-width="2.4" filter="url(#k_glow)"/></g></g><rect width="390" height="47" fill="#FFFFFF"/><text x="34" y="31" font-family="Inter" font-weight="600" font-size="16" fill="#171B1E">9:41</text><rect x="300" y="21" width="18" height="11" rx="2" fill="#171B1E"/><rect x="326" y="19" width="26" height="13" rx="3.5" fill="none" stroke="#171B1E" stroke-opacity=".6"/><rect x="328.5" y="21.5" width="18" height="8" rx="2" fill="#171B1E"/><rect x="125" y="11" width="140" height="34" rx="17" fill="#000"/><rect x="0" y="47" width="390" height="54" fill="#FFFFFF"/><path d="M0,101 H390" stroke="#D8D2C6"/><rect x="6" y="53" width="140" height="43" rx="21.5" fill="#1B2024"/><g transform="translate(16,63) scale(0.9166666666666666)" fill="none" stroke="#F5A300" stroke-width="2.40" stroke-linecap="round" stroke-linejoin="round"><circle cx="12" cy="12" r="9"/><path d="M15.5 8.6a4.6 4.6 0 1 0 0 6.8M6.5 10.8h6.5M6.5 13.4h6.5"/></g><text x="44" y="75" text-anchor="start" font-family="Barlow Condensed" font-weight="700" font-size="21" letter-spacing="0" fill="#F4F0E6" opacity="1">31 900 €</text><text x="44" y="89" text-anchor="start" font-family="Barlow Condensed" font-weight="700" font-size="10.5" letter-spacing="0" fill="#8EE86B" opacity="1">▲ +1 480 € aujourd'hui</text><text x="210" y="70" text-anchor="middle" font-family="Barlow Condensed" font-weight="700" font-size="12.5" letter-spacing="0" fill="#171B1E" opacity="1">Mer. 9 juil. · 11:40</text><rect x="164" y="76" width="92" height="20" rx="10" fill="#1B2024"/><g transform="translate(171,78) scale(0.6666666666666666)" fill="none" stroke="#1E97E0" stroke-width="3.00" stroke-linecap="round" stroke-linejoin="round"><path d="M7 18.5h10a4 4 0 0 0 .6-8 6 6 0 0 0-11.4 1.6A3.3 3.3 0 0 0 7 18.5z"/></g><text x="190" y="90.5" text-anchor="start" font-family="Barlow Condensed" font-weight="700" font-size="12" letter-spacing="0" fill="#F4F0E6" opacity="1">19°</text><text x="212" y="90.5" text-anchor="start" font-family="Barlow Condensed" font-weight="700" font-size="10.5" letter-spacing="0" fill="#F5A300" opacity="1">Vacances</text><text x="300" y="68" text-anchor="middle" font-family="Barlow Condensed" font-weight="700" font-size="9.5" letter-spacing="1.2" fill="#6A7276" opacity="1">NIVEAU</text><text x="300" y="91" text-anchor="middle" font-family="Barlow Condensed" font-weight="700" font-size="24" letter-spacing="0" fill="#171B1E" opacity="1">3</text><circle cx="352" cy="74" r="21" fill="#1B2024"/><g transform="translate(341,63) scale(0.9166666666666666)" fill="none" stroke="#F4F0E6" stroke-width="2.29" stroke-linecap="round" stroke-linejoin="round"><path d="M6 16.5V11a6 6 0 0 1 12 0v5.5l1.6 2H4.4z"/><path d="M10 20.5a2 2 0 0 0 4 0"/></g><circle cx="367" cy="58" r="9" fill="#EE3B30" stroke="#fff" stroke-width="1.5"/><text x="367" y="62" text-anchor="middle" font-family="Barlow Condensed" font-weight="700" font-size="11" letter-spacing="0" fill="#fff" opacity="1">1</text><rect y="101" width="390" height="743" fill="#171B1E" opacity=".18"/><g transform="translate(0,446)"><rect width="390" height="420" rx="24" fill="#FFFFFF"/><rect y="40" width="390" height="380" fill="#FFFFFF"/><rect x="175.0" y="10" width="40" height="5" rx="2.5" fill="#D8D2C6"/><text x="20" y="48" text-anchor="start" font-family="Righteous" font-weight="400" font-size="21" letter-spacing="0" fill="#171B1E" opacity="1">Terrain des Genêts</text><g transform="translate(304,34) scale(0.5833333333333334)" fill="none" stroke="#6A7276" stroke-width="3.77" stroke-linecap="round" stroke-linejoin="round"><path d="M9 6v12M15 6v12"/></g><text x="322" y="46" text-anchor="start" font-family="Barlow Condensed" font-weight="600" font-size="11" letter-spacing="0" fill="#6A7276" opacity="1">en pause</text><text x="20" y="68" text-anchor="start" font-family="Barlow Condensed" font-weight="700" font-size="11" letter-spacing="0.6" fill="#6A7276" opacity="1">PALIER 1 · CHAMP · 4 EMPLACEMENTS · FILE DE 8</text><text x="20" y="98" text-anchor="start" font-family="Barlow Condensed" font-weight="700" font-size="14.5" letter-spacing="0" fill="#171B1E" opacity="1">Potentiel</text><text x="370" y="98" text-anchor="end" font-family="Barlow Condensed" font-weight="600" font-size="13" letter-spacing="0" fill="#6A7276" opacity="1">≈ 52 clients/j</text><rect x="20" y="107" width="350" height="9" rx="4.5" fill="#00000012"/><rect x="20" y="107" width="203.0" height="9" rx="4.5" fill="#14BFAE"/><text x="20" y="140" text-anchor="start" font-family="Barlow Condensed" font-weight="700" font-size="14.5" letter-spacing="0" fill="#171B1E" opacity="1">Concurrence</text><text x="370" y="140" text-anchor="end" font-family="Barlow Condensed" font-weight="600" font-size="13" letter-spacing="0" fill="#6A7276" opacity="1">faible</text><rect x="20" y="149" width="350" height="9" rx="4.5" fill="#00000012"/><rect x="20" y="149" width="70.0" height="9" rx="4.5" fill="#F5A300"/><text x="20" y="182" text-anchor="start" font-family="Barlow Condensed" font-weight="700" font-size="14.5" letter-spacing="0" fill="#171B1E" opacity="1">Tendance</text><text x="370" y="182" text-anchor="end" font-family="Barlow Condensed" font-weight="700" font-size="13" letter-spacing="0" fill="#22A447" opacity="1">forte hausse</text><g transform="translate(20,190) scale(0.75)" fill="none" stroke="#F5A300" stroke-width="2.93" stroke-linecap="round" stroke-linejoin="round"><path d="M6 21V4h2v17M4 21h8M8 5h12l-2 3H8M17 8v5"/><path d="M15.5 13h3v2h-3z"/></g><text x="44" y="204" text-anchor="start" font-family="Inter" font-weight="500" font-size="12" letter-spacing="0" fill="#171B1E" opacity="1">Permis affiché : magasin d'ancrage à 600 m</text><rect x="20" y="222" width="350" height="48" rx="24.0" fill="#1B2024" stroke="#14BFAE" stroke-width="2.2" filter="url(#k_glow)"/><g transform="translate(38,236.0) scale(0.8333333333333334)" fill="none" stroke="#14BFAE" stroke-width="2.64" stroke-linecap="round" stroke-linejoin="round"><path d="M4 20V9l8-5 8 5v11"/><path d="M9 14h6M12 11v6"/></g><text x="66" y="252.0" text-anchor="start" font-family="Barlow Condensed" font-weight="700" font-size="17" letter-spacing="0" fill="#14BFAE" opacity="1">Acheter</text><text x="350" y="252.0" text-anchor="end" font-family="Barlow Condensed" font-weight="700" font-size="17" letter-spacing="0" fill="#F4F0E6" opacity="1">24 000 €</text><rect x="20" y="278" width="350" height="44" rx="22.0" fill="#1B2024" stroke="none" stroke-width="0" /><g transform="translate(38,290.0) scale(0.8333333333333334)" fill="none" stroke="#F4F0E6" stroke-width="2.64" stroke-linecap="round" stroke-linejoin="round"><path d="M3 10.5h18v9H3z"/><path d="M3 10.5L12 4l9 6.5"/><circle cx="12" cy="15" r="2.3"/></g><text x="66" y="306.0" text-anchor="start" font-family="Barlow Condensed" font-weight="700" font-size="17" letter-spacing="0" fill="#F4F0E6" opacity="1">Acheter avec un prêt</text><text x="350" y="306.0" text-anchor="end" font-family="Barlow Condensed" font-weight="700" font-size="17" letter-spacing="0" fill="#F4F0E6" opacity="1">255 €/mois</text><text x="195.0" y="352" text-anchor="middle" font-family="Inter" font-weight="500" font-size="11" letter-spacing="0" fill="#6A7276" opacity="1">Étude réalisée le 2 juil. · potentiel précis</text></g></svg>