<svg xmlns="http://www.w3.org/2000/svg" viewBox="0 0 150 118"><path d="M20,50 h46 l8,-4.8 h-46 z" fill="#F2EFE8" stroke="#9A9486" stroke-width=".8"/><path d="M66,50 l8,-4.8 v28 l-8,4.8 z" fill="#DDD8CC" stroke="#9A9486" stroke-width=".8"/><rect x="20" y="50" width="46" height="28" fill="#FFFFFF" stroke="#9A9486" stroke-width=".8"/><path d="M100,84 V20 M100,22 H140 M100,22 L82,30 M132,22 V40" stroke="#F5A300" stroke-width="3" fill="none" stroke-linecap="round"/><rect x="126" y="40" width="12" height="9" fill="#1B2024"/><path d="M76,84 l8,-14 l8,14 z" fill="#F5A300" stroke="#171B1E" stroke-width="1"/><path d="M30,15 L41,26 L30,37 L19,26 Z" fill="#F5A300" stroke="#D8D2C6" stroke-width="1.4" stroke-linejoin="round"/><path d="M30,20.5 L34.18,25.45 M30,20.5 L25.82,25.45 M30,20.5 L30,31.5" stroke="#101010" stroke-width="1.98" stroke-linecap="round" fill="none"/></svg>
