<svg xmlns="http://www.w3.org/2000/svg" viewBox="0 0 150 118"><path d="M12,50 h38 l8,-4.8 h-38 z" fill="#E2DDD2" stroke="#9A9486" stroke-width=".8"/><path d="M50,50 l8,-4.8 v28 l-8,4.8 z" fill="#CFC9BC" stroke="#9A9486" stroke-width=".8"/><rect x="12" y="50" width="38" height="28" fill="#F4F1EA" stroke="#9A9486" stroke-width=".8"/><path d="M12,50 l8,-8 l8,8 l8,-8 l8,8" fill="none" stroke="#9A9486" stroke-width="1"/><path d="M58,56 h38 l8,-4.8 h-38 z" fill="#E2DDD2" stroke="#9A9486" stroke-width=".8"/><path d="M96,56 l8,-4.8 v22 l-8,4.8 z" fill="#CFC9BC" stroke="#9A9486" stroke-width=".8"/><rect x="58" y="56" width="38" height="22" fill="#F4F1EA" stroke="#9A9486" stroke-width=".8"/><path d="M58,56 l8,-8 l8,8 l8,-8 l8,8" fill="none" stroke="#9A9486" stroke-width="1"/><path d="M102,50 h38 l8,-4.8 h-38 z" fill="#E2DDD2" stroke="#9A9486" stroke-width=".8"/><path d="M140,50 l8,-4.8 v28 l-8,4.8 z" fill="#CFC9BC" stroke="#9A9486" stroke-width=".8"/><rect x="102" y="50" width="38" height="28" fill="#F4F1EA" stroke="#9A9486" stroke-width=".8"/><path d="M102,50 l8,-8 l8,8 l8,-8 l8,8" fill="none" stroke="#9A9486" stroke-width="1"/></svg>
