<svg xmlns="http://www.w3.org/2000/svg" viewBox="0 0 120 150" width="120" height="150" ><defs><filter id="k_glow" x="-60%" y="-60%" width="220%" height="220%"><feGaussianBlur stdDeviation="2.4" result="b"/><feMerge><feMergeNode in="b"/><feMergeNode in="b"/><feMergeNode in="SourceGraphic"/></feMerge></filter><filter id="k_soft" x="-60%" y="-60%" width="220%" height="220%"><feGaussianBlur stdDeviation="5"/></filter><pattern id="k_dots" width="5" height="5" patternUnits="userSpaceOnUse"><circle cx="2.5" cy="2.5" r="1" fill="#000" opacity=".22"/></pattern><pattern id="k_dotsL" width="5" height="5" patternUnits="userSpaceOnUse"><circle cx="2.5" cy="2.5" r=".9" fill="#fff" opacity=".10"/></pattern><pattern id="k_check" width="12" height="12" patternUnits="userSpaceOnUse"><rect width="12" height="12" fill="#171B1E"/><rect width="6" height="6" fill="#D8D2C6"/><rect x="6" y="6" width="6" height="6" fill="#D8D2C6"/></pattern><pattern id="k_tiles" width="10" height="10" patternUnits="userSpaceOnUse"><rect width="10" height="10" fill="#EFEBE3"/><path d="M0 0H10M0 0V10" stroke="#000" stroke-opacity=".25" stroke-width="1"/></pattern><pattern id="k_rolpro" width="8" height="8" patternUnits="userSpaceOnUse" patternTransform="rotate(32)"><rect width="8" height="8" fill="#14BFAE"/><rect width="3" height="8" fill="#00000055"/></pattern><pattern id="k_roleco" width="8" height="8" patternUnits="userSpaceOnUse" patternTransform="rotate(32)"><rect width="8" height="8" fill="#9AA3A3"/><rect width="3" height="8" fill="#00000044"/></pattern><pattern id="k_rolprem" width="8" height="8" patternUnits="userSpaceOnUse" patternTransform="rotate(32)"><rect width="8" height="8" fill="#FF2E7A"/><rect width="3" height="8" fill="#00000055"/></pattern></defs><rect width="120" height="124" fill="#E7E3DB"/><rect y="124" width="120" height="26" fill="#CFCBC3"/><rect x="79" y="66" width="14" height="58" rx="2" fill="#AEB7BA" stroke="#8E989B" stroke-width="1"/><rect x="81" y="71" width="10" height="8" rx="1" fill="#EE3B30"/><circle cx="59" cy="50" r="3" fill="#8E999C"/><path d="M79,84 Q49,94 59,52" stroke="#222" stroke-width="2" fill="none"/><path d="M59,52 l0,14" stroke="#E5E8E8" stroke-width="3" stroke-linecap="round"/><path d="M53,42 Q53,31 60,31 Q67,31 67,42 Z" fill="#EE3B30" stroke="#8E989B" stroke-width="1" stroke-linejoin="round" filter="url(#k_glow)"/><rect x="51" y="42" width="18" height="3.5" fill="#888" stroke="#8E989B" stroke-width="1" stroke-linejoin="round"/><path d="M47.8,32.6 L41.2,30.2" stroke="#EE3B30" stroke-width="2.2" stroke-linecap="round"/><path d="M52.5,26.4 L48.5,20.6" stroke="#EE3B30" stroke-width="2.2" stroke-linecap="round"/><path d="M67.5,26.4 L71.5,20.6" stroke="#EE3B30" stroke-width="2.2" stroke-linecap="round"/><path d="M72.2,32.6 L78.8,30.2" stroke="#EE3B30" stroke-width="2.2" stroke-linecap="round"/><circle cx="92" cy="78" r="6" fill="#9AA0A0" opacity="0.55"/><circle cx="97" cy="69" r="8" fill="#9AA0A0" opacity="0.45"/><circle cx="90" cy="58" r="10" fill="#9AA0A0" opacity="0.35"/><circle cx="98" cy="46" r="12" fill="#9AA0A0" opacity="0.25"/><path d="M30,51 L41.55,70.8 L18.45,70.8 Z" fill="#EE3B30" stroke="#D8D2C6" stroke-width="1.4" stroke-linejoin="round"/><rect x="28.79" y="57.38" width="2.42" height="6.82" rx="1.1" fill="#101010"/><circle cx="30" cy="67.28" r="1.4300000000000002" fill="#101010"/><text x="44" y="68" font-family="Barlow Condensed" font-weight="700" font-size="13" fill="#EE3B30" stroke="#E7E3DB" stroke-width="3.5" paint-order="stroke">2 j</text><rect x="35.0" y="6" width="50" height="16" rx="8" fill="#1B2024" stroke="#EE3B30" stroke-width="2"/><text x="60" y="18" text-anchor="middle" font-family="Barlow Condensed" font-weight="700" font-size="10" letter-spacing="1" fill="#EE3B30" opacity="1">ÉCO</text></svg>