<svg xmlns="http://www.w3.org/2000/svg" viewBox="0 0 120 150" width="120" height="150" ><defs><filter id="k_glow" x="-60%" y="-60%" width="220%" height="220%"><feGaussianBlur stdDeviation="2.4" result="b"/><feMerge><feMergeNode in="b"/><feMergeNode in="b"/><feMergeNode in="SourceGraphic"/></feMerge></filter><filter id="k_soft" x="-60%" y="-60%" width="220%" height="220%"><feGaussianBlur stdDeviation="5"/></filter><pattern id="k_dots" width="5" height="5" patternUnits="userSpaceOnUse"><circle cx="2.5" cy="2.5" r="1" fill="#000" opacity=".22"/></pattern><pattern id="k_dotsL" width="5" height="5" patternUnits="userSpaceOnUse"><circle cx="2.5" cy="2.5" r=".9" fill="#fff" opacity=".10"/></pattern><pattern id="k_check" width="12" height="12" patternUnits="userSpaceOnUse"><rect width="12" height="12" fill="#171B1E"/><rect width="6" height="6" fill="#D8D2C6"/><rect x="6" y="6" width="6" height="6" fill="#D8D2C6"/></pattern><pattern id="k_tiles" width="10" height="10" patternUnits="userSpaceOnUse"><rect width="10" height="10" fill="#EFEBE3"/><path d="M0 0H10M0 0V10" stroke="#000" stroke-opacity=".25" stroke-width="1"/></pattern><pattern id="k_rolpro" width="8" height="8" patternUnits="userSpaceOnUse" patternTransform="rotate(32)"><rect width="8" height="8" fill="#14BFAE"/><rect width="3" height="8" fill="#00000055"/></pattern><pattern id="k_roleco" width="8" height="8" patternUnits="userSpaceOnUse" patternTransform="rotate(32)"><rect width="8" height="8" fill="#9AA3A3"/><rect width="3" height="8" fill="#00000044"/></pattern><pattern id="k_rolprem" width="8" height="8" patternUnits="userSpaceOnUse" patternTransform="rotate(32)"><rect width="8" height="8" fill="#FF2E7A"/><rect width="3" height="8" fill="#00000055"/></pattern></defs><rect width="120" height="124" fill="#E7E3DB"/><rect y="124" width="120" height="26" fill="#CFCBC3"/><rect x="81" y="66" width="14" height="58" rx="2" fill="#AEB7BA" stroke="#8E989B" stroke-width="1" stroke-linejoin="round"/><rect x="83" y="71" width="10" height="8" rx="1" fill="#6A7276"/><circle cx="60.0" cy="34" r="4" fill="#AEB7BA" stroke="#8E989B" stroke-width="1" stroke-linejoin="round"/><path d="M60.0,34 L60.0,52" stroke="#AEB7BA" stroke-width="4" stroke-linecap="round"/><path d="M60.0,52 Q54.0,90 56.0,94" stroke="#222" stroke-width="2" fill="none"/><path d="M56.0,94 l0,9" stroke="#E5E8E8" stroke-width="3" stroke-linecap="round"/><circle cx="83" cy="104" r="3" fill="#B5652E" opacity=".75"/><circle cx="89" cy="80" r="2.5" fill="#B5652E" opacity=".75"/><circle cx="60" cy="36" r="3" fill="#B5652E" opacity=".75"/><circle cx="85" cy="116" r="2" fill="#B5652E" opacity=".75"/><rect x="35.0" y="6" width="50" height="16" rx="8" fill="#F5A300"/><text x="60" y="18" text-anchor="middle" font-family="Barlow Condensed" font-weight="700" font-size="10" letter-spacing="1" fill="#171B1E" opacity="1">PRO</text></svg>